PathFileType	4	(X/Y/Z)	c:/Users/goper/Files/vsCode/490R/osim_files/C11/C11_Slow_05.trc
DataRate	CameraRate	NumFrames	NumMarkers	Units                	OrigDataRate	OrigDataStartFrame	OrigNumFrames
120.00	120.00	11	36	mm	120.0	391	1562
                Frame#	Time	LPSIS			LASIS			LTH1			LTH2			LTH3			LTH4			LLFE			LMFE			LSH1			LSH2			LSH3			LSH4			LLMAL			LMMAL			LCAL			LMTP5			LTOE			LMTP1			RPSIS			RASIS			RTH1			RTH2			RTH3			RTH4			RLFE			RMFE			RSH1			RSH2			RSH3			RSH4			RLMAL			RMMAL			RCAL			RMTP1			RTOE			RMTP5		
		X1	Y1	Z1	X2	Y2	Z2	X3	Y3	Z3	X4	Y4	Z4	X5	Y5	Z5	X6	Y6	Z6	X7	Y7	Z7	X8	Y8	Z8	X9	Y9	Z9	X10	Y10	Z10	X11	Y11	Z11	X12	Y12	Z12	X13	Y13	Z13	X14	Y14	Z14	X15	Y15	Z15	X16	Y16	Z16	X17	Y17	Z17	X18	Y18	Z18	X19	Y19	Z19	X20	Y20	Z20	X21	Y21	Z21	X22	Y22	Z22	X23	Y23	Z23	X24	Y24	Z24	X25	Y25	Z25	X26	Y26	Z26	X27	Y27	Z27	X28	Y28	Z28	X29	Y29	Z29	X30	Y30	Z30	X31	Y31	Z31	X32	Y32	Z32	X33	Y33	Z33	X34	Y34	Z34	X35	Y35	Z35	X36	Y36	Z36

391	3.25000	2629.66772	999.85352	291.11462	0.00000	0.00000	0.00000	2543.16895	617.77612	388.18274	2537.55225	570.47278	385.14218	2483.36523	617.28607	396.20132	2486.61255	571.13812	388.74399	0.00000	0.00000	0.00000	2513.31934	498.99103	383.05469	0.00000	0.00000	0.00000	2557.42407	380.42050	418.56412	0.00000	0.00000	0.00000	2523.22827	343.80521	389.28479	2608.49414	96.26078	317.08224	0.00000	0.00000	0.00000	2670.49365	63.86926	265.09723	2495.05884	42.80367	341.20764	2427.68188	60.34917	269.47879	2465.50220	47.07703	224.38921	2634.96973	1010.77954	207.52972	0.00000	0.00000	0.00000	0.00000	0.00000	0.00000	0.00000	0.00000	0.00000	-1148.83411	737.30847	2784.97803	0.00000	0.00000	0.00000	2332.92407	549.21790	96.42562	2349.40039	528.03479	206.18677	2413.69434	462.63513	77.17082	2419.88306	417.52625	75.98685	0.00000	0.00000	0.00000	0.00000	0.00000	0.00000	0.00000	0.00000	0.00000	2428.21826	148.69444	194.36662	2529.84888	123.41763	159.93124	2332.83691	62.58748	168.18697	0.00000	0.00000	0.00000	2364.31421	58.83820	63.41982
392	3.25833	2624.19409	999.74054	290.89041	0.00000	0.00000	0.00000	2541.12036	618.13849	389.04559	2535.92847	570.72327	386.13138	2481.17773	616.97424	396.68988	2485.01733	571.04053	389.73895	0.00000	0.00000	0.00000	2512.52100	498.79929	384.17068	0.00000	0.00000	0.00000	0.00000	0.00000	0.00000	0.00000	0.00000	0.00000	2523.03345	343.64642	390.22891	2608.58813	96.25753	317.20496	0.00000	0.00000	0.00000	2670.53320	63.87687	265.13031	2494.44922	42.14930	340.66174	2427.77881	60.26362	269.50439	2465.47632	47.05814	224.39606	2629.37744	1010.63660	207.29410	0.00000	0.00000	0.00000	0.00000	0.00000	0.00000	0.00000	0.00000	0.00000	-1148.82788	737.33081	2784.98633	0.00000	0.00000	0.00000	2326.93506	549.24377	96.57482	2342.69092	527.37518	206.51176	2403.23730	458.64706	77.45464	2408.73413	413.71237	75.63331	0.00000	0.00000	0.00000	0.00000	0.00000	0.00000	0.00000	0.00000	0.00000	2403.22095	143.69125	193.71312	0.00000	0.00000	0.00000	2304.41943	62.98983	166.97765	2284.62646	81.87272	115.15144	2336.21411	57.32695	62.34908
393	3.26667	2618.68262	999.61572	290.65015	0.00000	0.00000	0.00000	2539.05249	618.44116	389.88638	2534.26538	570.94812	387.13879	2479.28931	616.96948	397.60727	2483.48560	570.89764	390.78876	0.00000	0.00000	0.00000	2511.73755	498.68228	385.15411	0.00000	0.00000	0.00000	2556.96094	380.04590	420.50977	0.00000	0.00000	0.00000	2522.86475	343.61987	391.21347	2608.65283	96.20453	317.31281	0.00000	0.00000	0.00000	2670.56689	63.85320	265.18283	2494.46460	42.08392	340.77643	2427.90967	60.21584	269.58182	2465.49927	47.10200	224.43811	2623.72974	1010.43256	207.05969	0.00000	0.00000	0.00000	0.00000	0.00000	0.00000	0.00000	0.00000	0.00000	-1148.91382	737.31317	2784.99707	0.00000	0.00000	0.00000	2321.38354	548.81549	96.73859	2336.33154	526.58240	206.89005	2394.43237	454.73209	77.40802	2397.90771	409.72034	75.45019	0.00000	0.00000	0.00000	0.00000	0.00000	0.00000	0.00000	0.00000	0.00000	2378.66016	139.90398	193.11855	0.00000	0.00000	0.00000	2276.34424	64.06445	165.55716	2263.51025	80.36063	115.21738	2308.53638	56.75496	61.29442
394	3.27500	2613.12061	999.45172	290.38391	0.00000	0.00000	0.00000	2537.03101	618.77130	390.78918	2532.67944	571.25757	388.19617	2477.25977	616.78180	398.59735	2481.77441	570.62622	391.61670	0.00000	0.00000	0.00000	2511.11816	498.70251	386.48431	2573.53369	399.71002	395.24213	0.00000	0.00000	0.00000	2515.57593	389.40417	393.59973	2522.55371	343.48514	392.21735	2608.71899	96.16552	317.41980	0.00000	0.00000	0.00000	2670.61743	63.89103	265.25409	2494.53564	42.12070	340.95926	2428.01123	60.16842	269.65054	2465.50391	47.14503	224.56929	2617.97803	1010.17560	206.76447	0.00000	0.00000	0.00000	0.00000	0.00000	0.00000	0.00000	0.00000	0.00000	-1148.89404	737.33276	2784.99902	0.00000	0.00000	0.00000	2316.21289	548.00500	96.91346	2330.25659	525.47827	207.35153	2385.83008	450.58569	77.53721	2387.43823	405.71118	75.34045	0.00000	0.00000	0.00000	0.00000	0.00000	0.00000	0.00000	0.00000	0.00000	2363.20386	134.40605	193.83316	0.00000	0.00000	0.00000	2247.73389	66.19890	164.33200	2237.83862	83.63174	114.76083	2281.61475	56.69788	59.22333
395	3.28333	2607.48486	999.21448	290.08868	0.00000	0.00000	0.00000	2534.98730	619.15424	391.63742	2531.04224	571.56305	389.23010	2475.10425	616.60266	399.27954	2480.32715	570.59778	392.96793	0.00000	0.00000	0.00000	2510.34082	498.68784	387.49341	2573.34839	399.74048	395.96985	2580.14062	355.66879	392.59775	2515.51782	389.28851	394.88828	0.00000	0.00000	0.00000	2608.76074	96.16689	317.52905	0.00000	0.00000	0.00000	2670.64136	63.93465	265.28732	2494.70166	42.27565	341.21182	2428.14917	60.25185	269.77618	2465.61230	47.31456	224.70166	2612.12720	1009.81610	206.46121	0.00000	0.00000	0.00000	0.00000	0.00000	0.00000	0.00000	0.00000	0.00000	-1148.88159	737.32678	2784.97314	0.00000	0.00000	0.00000	2311.50610	546.97168	96.92583	2324.44385	524.06543	207.81972	2377.42041	446.21243	77.81702	2375.44775	400.95407	76.16511	2315.76538	443.81262	75.77358	0.00000	0.00000	0.00000	0.00000	0.00000	0.00000	2331.27954	135.12669	191.78076	0.00000	0.00000	0.00000	2220.06006	68.94698	163.23242	2208.01318	84.98631	114.09767	2253.58569	57.56995	59.64193
396	3.29167	2601.79126	998.94415	289.74380	0.00000	0.00000	0.00000	2532.81641	619.35333	392.44260	2529.26685	571.74805	390.15982	2473.19629	616.55841	400.29691	2478.57544	570.42072	393.75214	0.00000	0.00000	0.00000	2509.63770	498.75104	388.71429	2573.07983	399.78360	396.65048	2579.94800	355.69736	393.17996	0.00000	0.00000	0.00000	0.00000	0.00000	0.00000	2608.80615	96.17593	317.62354	0.00000	0.00000	0.00000	2670.65039	63.95944	265.33118	2494.82690	42.36705	341.43454	2428.32788	60.35381	269.93051	2465.74316	47.48732	224.80995	2606.17285	1009.39429	206.10243	0.00000	0.00000	0.00000	0.00000	0.00000	0.00000	0.00000	0.00000	0.00000	-1148.84900	737.35962	2784.99976	0.00000	0.00000	0.00000	2307.13940	545.51190	96.83887	2318.91406	522.14697	208.11913	2369.10132	441.60220	78.23211	2364.88770	396.51331	76.50592	2307.15649	441.78033	75.93678	0.00000	0.00000	0.00000	0.00000	0.00000	0.00000	2307.55444	132.13710	193.20277	0.00000	0.00000	0.00000	2176.48145	74.22533	162.83284	2183.08398	88.63483	111.08330	2226.23804	58.88221	58.99822
397	3.30000	2596.02051	998.58990	289.41769	0.00000	0.00000	0.00000	2530.62256	619.62421	393.17917	2528.60840	572.10950	391.38852	2473.38794	617.27936	402.22821	2477.01660	570.37311	394.82086	0.00000	0.00000	0.00000	2509.47876	499.65475	389.41058	2572.77222	399.80615	397.26340	2579.61060	355.37634	394.26044	0.00000	0.00000	0.00000	0.00000	0.00000	0.00000	2608.82422	96.09220	317.69870	0.00000	0.00000	0.00000	2670.64648	63.94595	265.36496	2495.25317	42.56760	342.15213	2428.49365	60.34564	270.04211	2465.84692	47.65582	224.87323	2600.10010	1008.92346	205.72890	0.00000	0.00000	0.00000	0.00000	0.00000	0.00000	0.00000	0.00000	0.00000	-1148.85779	737.36963	2784.98535	0.00000	0.00000	0.00000	2302.93579	543.64484	96.70720	2313.91211	520.01526	208.28494	2360.89551	436.83163	78.63486	2354.41479	391.97858	76.87278	2299.01172	439.68991	75.92964	0.00000	0.00000	0.00000	0.00000	0.00000	0.00000	2281.52979	130.77180	192.10767	0.00000	0.00000	0.00000	2152.83545	79.92792	161.41330	2157.20459	93.09999	111.63805	2199.32788	61.22099	58.55400
398	3.30833	2590.11743	998.14093	289.05704	0.00000	0.00000	0.00000	0.00000	0.00000	0.00000	2526.71973	572.29663	392.13501	2470.27954	615.99658	402.34390	2475.57446	569.49158	394.29849	0.00000	0.00000	0.00000	2507.88110	498.62326	390.36237	2572.34937	399.88327	397.70294	2579.35889	355.72244	394.08459	2514.67358	388.66321	397.86157	0.00000	0.00000	0.00000	2608.80908	95.65240	318.33954	0.00000	0.00000	0.00000	2670.66382	63.98315	265.39111	2495.30200	42.50648	342.30093	2428.65820	60.32343	270.11276	2465.95386	47.79380	224.92508	2593.92505	1008.38501	205.31140	0.00000	0.00000	0.00000	0.00000	0.00000	0.00000	0.00000	0.00000	0.00000	-1148.87573	737.36951	2784.99463	0.00000	0.00000	0.00000	2299.08936	541.55853	96.46958	2309.12939	517.46393	208.35231	2352.68115	431.87317	78.99528	2343.98486	387.39020	77.27778	2290.80273	437.61569	75.94716	0.00000	0.00000	0.00000	0.00000	0.00000	0.00000	2257.98413	130.46536	192.89296	0.00000	0.00000	0.00000	2127.70581	85.38871	159.87163	2131.93237	98.11481	111.31911	2173.09253	64.56398	58.37535
399	3.31667	2584.09839	997.68622	288.66016	0.00000	0.00000	0.00000	0.00000	0.00000	0.00000	2524.71997	572.44684	392.68262	2467.68506	615.49377	402.69449	2473.22510	569.23547	394.68787	0.00000	0.00000	0.00000	2506.71143	498.39551	390.99561	2571.84155	400.02509	397.98282	2578.93555	355.84515	394.35416	2514.17773	388.47876	398.49936	0.00000	0.00000	0.00000	2608.78662	95.61855	318.36148	0.00000	0.00000	0.00000	2670.68286	64.04253	265.43222	2495.29126	42.39729	342.41772	2428.70898	60.24070	270.14233	2465.96729	47.81423	224.96133	2587.56519	1007.73401	204.89554	0.00000	0.00000	0.00000	0.00000	0.00000	0.00000	0.00000	0.00000	0.00000	-1148.92090	737.35437	2784.99854	0.00000	0.00000	0.00000	2295.16382	539.04108	96.22178	2304.62793	514.68048	208.28648	2344.44556	426.88062	79.24908	2333.53442	382.86172	77.59672	2282.78711	435.34488	75.97495	0.00000	0.00000	0.00000	0.00000	0.00000	0.00000	2233.91064	130.43266	192.82014	2336.94214	92.35338	164.60683	2102.38525	90.97239	162.05389	2107.15430	103.80188	110.91024	2147.14893	68.47450	58.44896
400	3.32500	2577.96582	997.08160	288.28302	0.00000	0.00000	0.00000	0.00000	0.00000	0.00000	2522.61450	572.55829	393.13605	2465.25537	615.18457	403.16019	2470.72412	568.89154	395.01846	0.00000	0.00000	0.00000	2505.40918	498.12354	391.36679	2571.23486	400.15225	398.15469	2578.41138	355.94104	394.49091	2513.52344	388.24841	398.92090	0.00000	0.00000	0.00000	2608.82764	95.69644	318.39230	0.00000	0.00000	0.00000	2670.64233	64.01756	265.40799	2495.29321	42.31215	342.53018	2429.09131	60.25746	269.70007	2465.96582	47.79313	224.97461	2581.10815	1007.02490	204.42615	0.00000	0.00000	0.00000	0.00000	0.00000	0.00000	0.00000	0.00000	0.00000	-1148.91638	737.37836	2784.99658	0.00000	0.00000	0.00000	2291.42432	536.27557	95.80117	2300.35620	511.81989	207.96356	2336.15625	421.85394	79.25397	2323.10669	378.45895	77.82346	2274.96460	433.17310	75.72481	0.00000	0.00000	0.00000	2242.30005	113.34354	104.13518	2210.82935	131.35764	193.64154	2291.71680	67.20213	163.60670	2078.74316	97.74110	161.69307	2083.54980	110.41119	111.77862	2122.44580	73.20934	58.14302
401	3.33333	2571.67017	996.34222	287.90292	0.00000	0.00000	0.00000	0.00000	0.00000	0.00000	2520.39111	572.61060	393.36758	2462.72339	614.78546	403.55627	2468.47559	568.88318	395.38297	0.00000	0.00000	0.00000	2503.96484	497.90955	391.53931	2570.49976	400.28772	398.15088	2577.79272	356.04492	394.46335	2512.89331	388.16772	399.25748	0.00000	0.00000	0.00000	2608.85376	95.74709	318.35129	0.00000	0.00000	0.00000	2670.66699	64.06351	265.41959	2494.91260	41.97714	342.09216	2427.68481	59.55376	271.29520	2465.97754	47.76027	225.01907	2574.50781	1006.15393	204.02931	0.00000	0.00000	0.00000	0.00000	0.00000	0.00000	0.00000	0.00000	0.00000	-1148.88367	737.37341	2784.99341	0.00000	0.00000	0.00000	2287.80518	533.46765	95.07554	2296.26636	508.84604	207.36502	2327.76294	417.06580	79.08625	2312.68091	374.31467	77.85745	2267.15918	431.09479	75.46404	0.00000	0.00000	0.00000	2219.51074	113.63979	105.42045	2188.58325	133.18800	194.99747	2266.59497	65.47618	165.15083	2055.15479	104.96293	162.51357	2060.67334	117.56733	112.59911	2097.86182	78.74770	59.89619
